<svg width="32" height="32" viewBox="0 0 32 32" fill="none" xmlns="http://www.w3.org/2000/svg">
<rect width="32" height="32" rx="12" fill="url(#paint0_linear_2824_6255)"/>
<path d="M20.3247 8.00333L18.2498 8C15.9188 8 14.4124 9.54552 14.4124 11.9376V13.7531H12.3262C12.146 13.7531 12 13.8993 12 14.0795V16.71C12 16.8903 12.1461 17.0363 12.3262 17.0363H14.4124V23.6738C14.4124 23.854 14.5584 24 14.7387 24H17.4605C17.6408 24 17.7868 23.8539 17.7868 23.6738V17.0363H20.226C20.4062 17.0363 20.5522 16.8903 20.5522 16.71L20.5532 14.0795C20.5532 13.993 20.5188 13.9101 20.4577 13.8488C20.3966 13.7876 20.3134 13.7531 20.2268 13.7531H17.7868V12.2141C17.7868 11.4744 17.963 11.0989 18.9266 11.0989L20.3243 11.0984C20.5044 11.0984 20.6504 10.9522 20.6504 10.7721V8.32958C20.6504 8.14964 20.5046 8.00366 20.3247 8.00333Z" fill="white"/>
<defs>
<linearGradient id="paint0_linear_2824_6255" x1="22.5745" y1="22.198" x2="7.11899" y2="0.727744" gradientUnits="userSpaceOnUse">
<stop stop-color="#535FE6" stop-opacity="0.84"/>
<stop offset="1" stop-color="#20C1CF" stop-opacity="0.57"/>
</linearGradient>
</defs>
</svg>
