<svg width="32" height="32" viewBox="0 0 32 32" fill="none" xmlns="http://www.w3.org/2000/svg">
<rect width="32" height="32" rx="12" fill="url(#paint0_linear_2824_6249)"/>
<path d="M23 11.3466C22.4794 11.575 21.9246 11.7264 21.3462 11.7999C21.9412 11.4446 22.3954 10.8864 22.6089 10.2135C22.0541 10.5442 21.4416 10.7779 20.7889 10.9083C20.2621 10.3474 19.5114 10 18.6924 10C17.1034 10 15.8241 11.2898 15.8241 12.8709C15.8241 13.0984 15.8434 13.3171 15.8906 13.5254C13.5045 13.409 11.3931 12.2654 9.97475 10.5233C9.72712 10.9529 9.58188 11.4446 9.58188 11.974C9.58188 12.968 10.0938 13.8491 10.8568 14.3593C10.3956 14.3505 9.94325 14.2166 9.56 14.0058C9.56 14.0145 9.56 14.0259 9.56 14.0373C9.56 15.432 10.5549 16.5905 11.8595 16.8574C11.6259 16.9212 11.3712 16.9519 11.107 16.9519C10.9232 16.9519 10.7377 16.9414 10.5636 16.9029C10.9355 18.0395 11.9908 18.8751 13.2455 18.9023C12.269 19.6661 11.0291 20.1264 9.68688 20.1264C9.4515 20.1264 9.22575 20.1159 9 20.087C10.2714 20.9069 11.7781 21.375 13.403 21.375C18.6845 21.375 21.572 17 21.572 13.2077C21.572 13.0809 21.5676 12.9584 21.5615 12.8368C22.1311 12.4325 22.6097 11.9276 23 11.3466Z" fill="white"/>
<defs>
<linearGradient id="paint0_linear_2824_6249" x1="22.5745" y1="22.198" x2="7.11899" y2="0.727744" gradientUnits="userSpaceOnUse">
<stop stop-color="#535FE6" stop-opacity="0.84"/>
<stop offset="1" stop-color="#20C1CF" stop-opacity="0.57"/>
</linearGradient>
</defs>
</svg>
