<svg width="32" height="32" viewBox="0 0 32 32" fill="none" xmlns="http://www.w3.org/2000/svg">
<rect width="32" height="32" rx="12" fill="url(#paint0_linear_2824_6260)"/>
<path d="M23.6909 12.6434C23.5181 12.0008 23.0114 11.4942 22.3689 11.3212C21.1951 11 16.4998 11 16.4998 11C16.4998 11 11.8047 11 10.6309 11.309C10.0008 11.4818 9.48175 12.0009 9.3089 12.6434C9 13.8171 9 16.2512 9 16.2512C9 16.2512 9 18.6976 9.3089 19.859C9.48193 20.5015 9.9884 21.0081 10.631 21.1811C11.8171 21.5024 16.5 21.5024 16.5 21.5024C16.5 21.5024 21.1951 21.5024 22.3689 21.1934C23.0115 21.0204 23.5181 20.5139 23.6911 19.8714C23.9999 18.6976 23.9999 16.2635 23.9999 16.2635C23.9999 16.2635 24.0123 13.8171 23.6909 12.6434ZM15.0049 18.4999V14.0025L18.9093 16.2512L15.0049 18.4999Z" fill="white"/>
<defs>
<linearGradient id="paint0_linear_2824_6260" x1="22.5745" y1="22.198" x2="7.11899" y2="0.727744" gradientUnits="userSpaceOnUse">
<stop stop-color="#535FE6" stop-opacity="0.84"/>
<stop offset="1" stop-color="#20C1CF" stop-opacity="0.57"/>
</linearGradient>
</defs>
</svg>
