<svg width="137" height="53" viewBox="0 0 137 53" fill="none" xmlns="http://www.w3.org/2000/svg">
<path d="M60.098 21L58.971 17.757H52.117L50.99 21H48.115L53.957 4.9H57.131L62.95 21H60.098ZM52.991 15.273H58.097L55.544 8.005L52.991 15.273Z" fill="white"/>
<path d="M71.0063 4.9C73.2143 4.9 75.0466 5.67433 76.5033 7.223C77.9753 8.77167 78.7113 10.6807 78.7113 12.95C78.7113 15.204 77.9753 17.113 76.5033 18.677C75.0466 20.2257 73.2143 21 71.0063 21H64.6813V4.9H71.0063ZM71.0063 18.47C72.5243 18.47 73.7586 17.9487 74.7093 16.906C75.6753 15.8633 76.1583 14.5447 76.1583 12.95C76.1583 11.34 75.6753 10.0213 74.7093 8.994C73.7586 7.95133 72.5243 7.43 71.0063 7.43H67.3263V18.47H71.0063Z" fill="white"/>
<path d="M83.7677 18.47H90.8977V21H81.1227V4.9H90.7827V7.43H83.7677V11.616H90.2077V14.123H83.7677V18.47Z" fill="white"/>
<path d="M105.164 21H102.151L98.609 15.181L95.067 21H92.054L97.114 12.72L92.353 4.9H95.343L98.609 10.259L101.875 4.9H104.888L100.127 12.72L105.164 21Z" fill="white"/>
<path d="M57.2229 47.299C54.8003 47.299 52.7916 46.5017 51.1969 44.907C49.6023 43.297 48.8049 41.3113 48.8049 38.95C48.8049 36.5887 49.6023 34.6107 51.1969 33.016C52.7916 31.406 54.8003 30.601 57.2229 30.601C58.6796 30.601 60.0213 30.946 61.2479 31.636C62.4899 32.326 63.4559 33.2613 64.1459 34.442L61.8459 35.776C61.4166 34.9787 60.7879 34.35 59.9599 33.89C59.1473 33.4147 58.2349 33.177 57.2229 33.177C55.5056 33.177 54.1103 33.7213 53.0369 34.81C51.9789 35.8987 51.4499 37.2787 51.4499 38.95C51.4499 40.6213 51.9789 42.0013 53.0369 43.09C54.1103 44.1787 55.5056 44.723 57.2229 44.723C58.2349 44.723 59.1549 44.493 59.9829 44.033C60.8109 43.5577 61.4319 42.9213 61.8459 42.124L64.1459 43.435C63.4713 44.6157 62.5129 45.5587 61.2709 46.264C60.0443 46.954 58.6949 47.299 57.2229 47.299Z" fill="white"/>
<path d="M76.719 47L75.592 43.757H68.738L67.611 47H64.736L70.578 30.9H73.752L79.571 47H76.719ZM69.612 41.273H74.718L72.165 34.005L69.612 41.273Z" fill="white"/>
<path d="M87.2363 30.9C88.7543 30.9 90.0193 31.406 91.0313 32.418C92.0586 33.43 92.5723 34.6873 92.5723 36.19C92.5723 37.6773 92.0586 38.9347 91.0313 39.962C90.0193 40.974 88.7543 41.48 87.2363 41.48H83.9473V47H81.3023V30.9H87.2363ZM87.2363 38.996C88.0183 38.996 88.6623 38.7353 89.1683 38.214C89.6743 37.6773 89.9273 37.0027 89.9273 36.19C89.9273 35.3773 89.6743 34.7103 89.1683 34.189C88.6623 33.6523 88.0183 33.384 87.2363 33.384H83.9473V38.996H87.2363Z" fill="white"/>
<path d="M94.8687 30.9H97.5137V47H94.8687V30.9Z" fill="white"/>
<path d="M111.196 30.9V33.43H106.665V47H104.02V33.43H99.466V30.9H111.196Z" fill="white"/>
<path d="M122.494 47L121.367 43.757H114.513L113.386 47H110.511L116.353 30.9H119.527L125.346 47H122.494ZM115.387 41.273H120.493L117.94 34.005L115.387 41.273Z" fill="white"/>
<path d="M129.723 44.47H136.278V47H127.078V30.9H129.723V44.47Z" fill="white"/>
<path fill-rule="evenodd" clip-rule="evenodd" d="M1.01312 32.9999C0.453591 32.9999 -0.00368546 32.5449 0.0349554 31.9867C0.569803 24.2604 7.17565 18.1546 15.2461 18.1546H32V26.3114H15.2461C11.8047 26.3114 8.95441 28.7755 8.45466 31.9906C8.36871 32.5435 7.92337 32.9999 7.36384 32.9999H1.01312Z" fill="#535FE6"/>
<path fill-rule="evenodd" clip-rule="evenodd" d="M0 31.6903C0 20.3886 9.37624 11.2267 20.9424 11.2267H32V19.4121H20.9424C14.0027 19.4121 8.37696 24.9092 8.37696 31.6903V31.9868C8.37696 32.5463 7.92337 32.9999 7.36384 32.9999H1.01312C0.453591 32.9999 0 32.5463 0 31.9868V31.6903Z" fill="#4452EE"/>
<path fill-rule="evenodd" clip-rule="evenodd" d="M0 30.3046C0 18.675 9.37624 9.24736 20.9424 9.24736H32V17.6703H20.9424C14.0027 17.6703 8.37696 23.3268 8.37696 30.3046V31.9868C8.37696 32.5463 7.92337 32.9999 7.36384 32.9999H1.01312C0.453591 32.9999 0 32.5463 0 31.9868V30.3046Z" fill="#1B1A1A"/>
<path fill-rule="evenodd" clip-rule="evenodd" d="M0 23.2681C0 11.8808 9.37624 2.64954 20.9424 2.64954H32V10.897H20.9424C14.0027 10.897 8.37696 16.4357 8.37696 23.2681V31.9869C8.37696 32.5465 7.92337 33.0001 7.36384 33.0001H1.01312C0.453591 33.0001 0 32.5465 0 31.9869V23.2681Z" fill="#0F828C"/>
<path fill-rule="evenodd" clip-rule="evenodd" d="M0 21.9424C0 10.3762 9.37624 1 20.9424 1H30.9869C31.5464 1 32 1.45359 32 2.01312V9.37696H20.9424C14.0027 9.37696 8.37696 15.0027 8.37696 21.9424V31.9869C8.37696 32.5464 7.92337 33 7.36384 33H1.01312C0.453591 33 0 32.5464 0 31.9869V21.9424Z" fill="#20C1CF"/>
<path fill-rule="evenodd" clip-rule="evenodd" d="M24.7656 33C24.206 33 23.7524 32.5464 23.7524 31.9869V1H30.9867C31.5463 1 31.9999 1.45359 31.9999 2.01312V31.9869C31.9999 32.5464 31.5463 33 30.9867 33H24.7656Z" fill="#535FE6"/>
</svg>
