<svg width="25" height="24" viewBox="0 0 25 24" fill="none" xmlns="http://www.w3.org/2000/svg">
<path fill-rule="evenodd" clip-rule="evenodd" d="M1.51312 24C0.953591 24 0.495056 23.5449 0.546624 22.9878C1.07186 17.313 5.96987 12.866 11.9346 12.866H24.5V18.9836H11.9346C9.44318 18.9836 7.36484 20.7056 6.88637 22.9939C6.77186 23.5416 6.32913 24 5.7696 24H1.51312Z" fill="#535FE6"/>
<path fill-rule="evenodd" clip-rule="evenodd" d="M0.5 23.0175C0.5 14.5412 7.53218 7.66986 16.2068 7.66986H24.5V13.8089H16.2068C11.002 13.8089 6.78272 17.9317 6.78272 23.0175C6.78272 23.56 6.34295 23.9998 5.80047 23.9998H1.48225C0.939768 23.9998 0.5 23.56 0.5 23.0175Z" fill="#4452EE"/>
<path fill-rule="evenodd" clip-rule="evenodd" d="M0.5 21.9785C0.5 13.2563 7.53218 6.18561 16.2068 6.18561H24.5V12.5028H16.2068C11.002 12.5028 6.78272 16.7452 6.78272 21.9785V22.9869C6.78272 23.5464 6.32913 24 5.7696 24H1.51312C0.953591 24 0.5 23.5464 0.5 22.9869V21.9785Z" fill="#1B1A1A"/>
<path fill-rule="evenodd" clip-rule="evenodd" d="M0.5 16.7009C0.5 8.16043 7.53218 1.237 16.2068 1.237H24.5V7.42257H16.2068C11.002 7.42257 6.78272 11.5766 6.78272 16.7009V22.9868C6.78272 23.5463 6.32913 23.9999 5.7696 23.9999H1.51312C0.953591 23.9999 0.5 23.5463 0.5 22.9868V16.7009Z" fill="#0F828C"/>
<path fill-rule="evenodd" clip-rule="evenodd" d="M0.5 15.7067C0.5 7.03212 7.53218 -6.10352e-05 16.2068 -6.10352e-05H23.4869C24.0464 -6.10352e-05 24.5 0.453531 24.5 1.01306V6.28266H16.2068C11.002 6.28266 6.78272 10.502 6.78272 15.7067V22.9868C6.78272 23.5463 6.32913 23.9999 5.7696 23.9999H1.51312C0.953591 23.9999 0.5 23.5463 0.5 22.9868V15.7067Z" fill="#20C1CF"/>
<path fill-rule="evenodd" clip-rule="evenodd" d="M19.3276 23.9999C18.768 23.9999 18.3145 23.5463 18.3145 22.9868V-6.10352e-05H23.4869C24.0464 -6.10352e-05 24.5 0.45353 24.5 1.01306V22.9868C24.5 23.5463 24.0464 23.9999 23.4869 23.9999H19.3276Z" fill="#535FE6"/>
</svg>
