<svg width="152" height="32" viewBox="0 0 152 32" fill="none" xmlns="http://www.w3.org/2000/svg">
<rect width="32" height="32" rx="12" fill="url(#paint0_linear_2824_6248)"/>
<path d="M23 11.3466C22.4794 11.575 21.9246 11.7264 21.3462 11.7999C21.9412 11.4446 22.3954 10.8864 22.6089 10.2135C22.0541 10.5442 21.4416 10.7779 20.7889 10.9083C20.2621 10.3474 19.5114 10 18.6924 10C17.1034 10 15.8241 11.2898 15.8241 12.8709C15.8241 13.0984 15.8434 13.3171 15.8906 13.5254C13.5045 13.409 11.3931 12.2654 9.97475 10.5233C9.72712 10.9529 9.58188 11.4446 9.58188 11.974C9.58188 12.968 10.0938 13.8491 10.8568 14.3593C10.3956 14.3505 9.94325 14.2166 9.56 14.0058C9.56 14.0145 9.56 14.0259 9.56 14.0373C9.56 15.432 10.5549 16.5905 11.8595 16.8574C11.6259 16.9212 11.3712 16.9519 11.107 16.9519C10.9232 16.9519 10.7377 16.9414 10.5636 16.9029C10.9355 18.0395 11.9908 18.8751 13.2455 18.9023C12.269 19.6661 11.0291 20.1264 9.68688 20.1264C9.4515 20.1264 9.22575 20.1159 9 20.087C10.2714 20.9069 11.7781 21.375 13.403 21.375C18.6845 21.375 21.572 17 21.572 13.2077C21.572 13.0809 21.5676 12.9584 21.5615 12.8368C22.1311 12.4325 22.6097 11.9276 23 11.3466Z" fill="white"/>
<rect x="40" width="32" height="32" rx="12" fill="url(#paint1_linear_2824_6248)"/>
<path d="M60.3247 8.00333L58.2498 8C55.9188 8 54.4124 9.54552 54.4124 11.9376V13.7531H52.3262C52.146 13.7531 52 13.8993 52 14.0795V16.71C52 16.8903 52.1461 17.0363 52.3262 17.0363H54.4124V23.6738C54.4124 23.854 54.5584 24 54.7387 24H57.4605C57.6408 24 57.7868 23.8539 57.7868 23.6738V17.0363H60.226C60.4062 17.0363 60.5522 16.8903 60.5522 16.71L60.5532 14.0795C60.5532 13.993 60.5188 13.9101 60.4577 13.8488C60.3966 13.7876 60.3134 13.7531 60.2268 13.7531H57.7868V12.2141C57.7868 11.4744 57.963 11.0989 58.9266 11.0989L60.3243 11.0984C60.5044 11.0984 60.6504 10.9522 60.6504 10.7721V8.32958C60.6504 8.14964 60.5046 8.00366 60.3247 8.00333Z" fill="white"/>
<rect x="80" width="32" height="32" rx="12" fill="url(#paint2_linear_2824_6248)"/>
<path d="M103.691 12.6434C103.518 12.0008 103.011 11.4942 102.369 11.3212C101.195 11 96.4998 11 96.4998 11C96.4998 11 91.8047 11 90.6309 11.309C90.0008 11.4818 89.4818 12.0009 89.3089 12.6434C89 13.8171 89 16.2512 89 16.2512C89 16.2512 89 18.6976 89.3089 19.859C89.4819 20.5015 89.9884 21.0081 90.631 21.1811C91.8171 21.5024 96.5 21.5024 96.5 21.5024C96.5 21.5024 101.195 21.5024 102.369 21.1934C103.012 21.0204 103.518 20.5139 103.691 19.8714C104 18.6976 104 16.2635 104 16.2635C104 16.2635 104.012 13.8171 103.691 12.6434ZM95.0049 18.4999V14.0025L98.9093 16.2512L95.0049 18.4999Z" fill="white"/>
<rect x="120" width="32" height="32" rx="12" fill="url(#paint3_linear_2824_6248)"/>
<path d="M135.022 18.0301L134.811 21.0083C135.114 21.0083 135.245 20.8781 135.402 20.7219L136.822 19.3645L139.765 21.5197C140.305 21.8205 140.685 21.6621 140.831 21.0232L142.763 11.9715L142.763 11.9709C142.934 11.1731 142.475 10.8611 141.949 11.0568L130.594 15.404C129.819 15.7048 129.831 16.1368 130.462 16.3325L133.365 17.2355L140.108 13.0163C140.426 12.8061 140.714 12.9224 140.477 13.1325L135.022 18.0301Z" fill="white"/>
<defs>
<linearGradient id="paint0_linear_2824_6248" x1="22.5745" y1="22.198" x2="7.11899" y2="0.727744" gradientUnits="userSpaceOnUse">
<stop stop-color="#535FE6" stop-opacity="0.84"/>
<stop offset="1" stop-color="#20C1CF" stop-opacity="0.57"/>
</linearGradient>
<linearGradient id="paint1_linear_2824_6248" x1="62.5745" y1="22.198" x2="47.119" y2="0.727744" gradientUnits="userSpaceOnUse">
<stop stop-color="#535FE6" stop-opacity="0.84"/>
<stop offset="1" stop-color="#20C1CF" stop-opacity="0.57"/>
</linearGradient>
<linearGradient id="paint2_linear_2824_6248" x1="102.575" y1="22.198" x2="87.119" y2="0.727744" gradientUnits="userSpaceOnUse">
<stop stop-color="#535FE6" stop-opacity="0.84"/>
<stop offset="1" stop-color="#20C1CF" stop-opacity="0.57"/>
</linearGradient>
<linearGradient id="paint3_linear_2824_6248" x1="142.575" y1="22.198" x2="127.119" y2="0.727744" gradientUnits="userSpaceOnUse">
<stop stop-color="#535FE6" stop-opacity="0.84"/>
<stop offset="1" stop-color="#20C1CF" stop-opacity="0.57"/>
</linearGradient>
</defs>
</svg>
